STARTFONT 2.1
COMMENT Created by fdbbdf
FONT andyoffice12
SIZE 12 78 78
FONTBOUNDINGBOX 17 14 0 -4
STARTPROPERTIES 4
Ownership "  Copyright (c) 1984 Adobe Systems, Inc.  /adobe/fonttools/bitmaps/stdfontvec.ps HM14.bits  TOTAL BITMAP BYTES 1442  GUIDELINES -3 0 8 11 DONE  WIDTHERR -96 -229  "
FONT_ASCENT 10
FONT_DESCENT 4
DEFAULT_CHAR 32
ENDPROPERTIES
CHARS 95
STARTCHAR sp
ENCODING -1 32
SWIDTH 0 0
DWIDTH 4 0
BBX 0 0 0 0
BITMAP
ENDCHAR
STARTCHAR !
ENCODING -1 33
SWIDTH 0 0
DWIDTH 4 0
BBX 1 11 2 -1
BITMAP
8000
8000
8000
8000
8000
8000
8000
8000
0000
8000
8000
ENDCHAR
STARTCHAR "
ENCODING -1 34
SWIDTH 0 0
DWIDTH 5 0
BBX 3 3 1 7
BITMAP
a000
a000
a000
ENDCHAR
STARTCHAR #
ENCODING -1 35
SWIDTH 0 0
DWIDTH 8 0
BBX 7 10 0 -1
BITMAP
1400
1400
1400
7e00
2800
2800
fc00
5000
5000
5000
ENDCHAR
STARTCHAR $
ENCODING -1 36
SWIDTH 0 0
DWIDTH 8 0
BBX 7 13 0 -3
BITMAP
1000
7c00
9200
9200
9000
7c00
1200
1200
9200
9200
7c00
1000
1000
ENDCHAR
STARTCHAR %
ENCODING -1 37
SWIDTH 0 0
DWIDTH 12 0
BBX 11 11 0 -1
BITMAP
7080
8900
8900
7200
0200
0400
0800
09c0
1220
1220
21c0
ENDCHAR
STARTCHAR &
ENCODING -1 38
SWIDTH 0 0
DWIDTH 10 0
BBX 8 10 1 -1
BITMAP
3000
4800
4800
3000
2000
5100
8a00
8400
8a00
7100
ENDCHAR
STARTCHAR '
ENCODING -1 39
SWIDTH 0 0
DWIDTH 3 0
BBX 2 3 1 7
BITMAP
c000
4000
8000
ENDCHAR
STARTCHAR (
ENCODING -1 40
SWIDTH 0 0
DWIDTH 5 0
BBX 3 14 1 -4
BITMAP
2000
4000
4000
8000
8000
8000
8000
8000
8000
8000
8000
4000
4000
2000
ENDCHAR
STARTCHAR )
ENCODING -1 41
SWIDTH 0 0
DWIDTH 5 0
BBX 3 14 1 -4
BITMAP
8000
4000
4000
2000
2000
2000
2000
2000
2000
2000
2000
4000
4000
8000
ENDCHAR
STARTCHAR *
ENCODING -1 42
SWIDTH 0 0
DWIDTH 7 0
BBX 5 5 1 5
BITMAP
2000
a800
7000
a800
2000
ENDCHAR
STARTCHAR +
ENCODING -1 43
SWIDTH 0 0
DWIDTH 9 0
BBX 7 7 1 0
BITMAP
1000
1000
1000
fe00
1000
1000
1000
ENDCHAR
STARTCHAR ,
ENCODING -1 44
SWIDTH 0 0
DWIDTH 3 0
BBX 2 4 0 -3
BITMAP
4000
4000
4000
8000
ENDCHAR
STARTCHAR -
ENCODING -1 45
SWIDTH 0 0
DWIDTH 6 0
BBX 5 1 1 3
BITMAP
f800
ENDCHAR
STARTCHAR .
ENCODING -1 46
SWIDTH 0 0
DWIDTH 3 0
BBX 1 2 1 -1
BITMAP
8000
8000
ENDCHAR
STARTCHAR /
ENCODING -1 47
SWIDTH 0 0
DWIDTH 4 0
BBX 4 11 0 -1
BITMAP
1000
1000
2000
2000
2000
4000
4000
4000
8000
8000
8000
ENDCHAR
STARTCHAR 0
ENCODING -1 48
SWIDTH 0 0
DWIDTH 8 0
BBX 6 10 1 -1
BITMAP
7800
8400
8400
8400
8400
8400
8400
8400
8400
7800
ENDCHAR
STARTCHAR 1
ENCODING -1 49
SWIDTH 0 0
DWIDTH 7 0
BBX 3 10 2 -1
BITMAP
2000
e000
2000
2000
2000
2000
2000
2000
2000
2000
ENDCHAR
STARTCHAR 2
ENCODING -1 50
SWIDTH 0 0
DWIDTH 8 0
BBX 6 10 1 -1
BITMAP
7800
8400
8400
0400
0800
1000
2000
4000
8000
fc00
ENDCHAR
STARTCHAR 3
ENCODING -1 51
SWIDTH 0 0
DWIDTH 8 0
BBX 6 10 1 -1
BITMAP
7800
8400
8400
0400
3800
0400
0400
8400
8400
7800
ENDCHAR
STARTCHAR 4
ENCODING -1 52
SWIDTH 0 0
DWIDTH 8 0
BBX 7 10 1 -1
BITMAP
0c00
1400
2400
4400
8400
8400
fe00
0400
0400
0400
ENDCHAR
STARTCHAR 5
ENCODING -1 53
SWIDTH 0 0
DWIDTH 8 0
BBX 6 10 1 -1
BITMAP
fc00
8000
8000
f800
0400
0400
0400
8400
8400
7800
ENDCHAR
STARTCHAR 6
ENCODING -1 54
SWIDTH 0 0
DWIDTH 8 0
BBX 6 10 1 -1
BITMAP
7800
8400
8000
8000
f800
8400
8400
8400
8400
7800
ENDCHAR
STARTCHAR 7
ENCODING -1 55
SWIDTH 0 0
DWIDTH 8 0
BBX 6 10 1 -1
BITMAP
fc00
0400
0800
0800
1000
1000
2000
2000
4000
4000
ENDCHAR
STARTCHAR 8
ENCODING -1 56
SWIDTH 0 0
DWIDTH 8 0
BBX 6 10 1 -1
BITMAP
7800
8400
8400
8400
7800
8400
8400
8400
8400
7800
ENDCHAR
STARTCHAR 9
ENCODING -1 57
SWIDTH 0 0
DWIDTH 8 0
BBX 6 10 1 -1
BITMAP
7800
8400
8400
8400
8400
7c00
0400
0400
8400
7800
ENDCHAR
STARTCHAR :
ENCODING -1 58
SWIDTH 0 0
DWIDTH 3 0
BBX 1 7 1 0
BITMAP
8000
8000
0000
0000
0000
8000
8000
ENDCHAR
STARTCHAR ;
ENCODING -1 59
SWIDTH 0 0
DWIDTH 4 0
BBX 2 10 0 -3
BITMAP
4000
4000
0000
0000
0000
0000
4000
4000
4000
8000
ENDCHAR
STARTCHAR <
ENCODING -1 60
SWIDTH 0 0
DWIDTH 8 0
BBX 6 5 1 1
BITMAP
0c00
3000
c000
3000
0c00
ENDCHAR
STARTCHAR =
ENCODING -1 61
SWIDTH 0 0
DWIDTH 9 0
BBX 6 3 2 2
BITMAP
fc00
0000
fc00
ENDCHAR
STARTCHAR >
ENCODING -1 62
SWIDTH 0 0
DWIDTH 8 0
BBX 6 5 1 1
BITMAP
c000
3000
0c00
3000
c000
ENDCHAR
STARTCHAR ?
ENCODING -1 63
SWIDTH 0 0
DWIDTH 8 0
BBX 6 11 1 -1
BITMAP
7800
8400
8400
8400
0800
1000
2000
2000
0000
2000
2000
ENDCHAR
STARTCHAR @
ENCODING -1 64
SWIDTH 0 0
DWIDTH 17 0
BBX 17 1 0 -1
BITMAP
00000000
ENDCHAR
STARTCHAR A
ENCODING -1 65
SWIDTH 0 0
DWIDTH 17 0
BBX 16 10 0 -1
BITMAP
3c00
4200
81f8
8004
8004
8004
8004
8004
8004
fffc
ENDCHAR
STARTCHAR B
ENCODING -1 66
SWIDTH 0 0
DWIDTH 17 0
BBX 16 10 0 -1
BITMAP
3c00
4200
81f8
8004
9fff
9001
a002
a002
c004
fffc
ENDCHAR
STARTCHAR C
ENCODING -1 67
SWIDTH 0 0
DWIDTH 17 0
BBX 16 11 0 -1
BITMAP
0100
0280
0440
0820
1010
2008
1010
0820
0440
0280
0100
ENDCHAR
STARTCHAR D
ENCODING -1 68
SWIDTH 0 0
DWIDTH 17 0
BBX 16 11 0 -1
BITMAP
0fe0
0850
0848
0878
0808
0808
0808
0808
0808
0808
0ff8
ENDCHAR
STARTCHAR E
ENCODING -1 69
SWIDTH 0 0
DWIDTH 17 0
BBX 16 11 0 -1
BITMAP
0fe0
0850
0848
0038
0d88
1248
2d88
4108
8a08
aa88
4d38
ENDCHAR
STARTCHAR F
ENCODING -1 70
SWIDTH 0 0
DWIDTH 17 0
BBX 16 11 0 -1
BITMAP
0fe0
0850
0848
0b78
0508
0a08
1408
2808
5008
e808
4ff8
ENDCHAR
STARTCHAR G
ENCODING -1 71
SWIDTH 0 0
DWIDTH 17 0
BBX 16 11 0 -1
BITMAP
03e0
0ff8
0808
0ff8
0410
0550
0550
0550
0550
0410
07f0
ENDCHAR
STARTCHAR H
ENCODING -1 72
SWIDTH 0 0
DWIDTH 12 0
BBX 10 11 1 -1
BITMAP
0000
0000
ff80
8080
8080
8080
8080
8080
8080
8080
ff80
ENDCHAR
STARTCHAR I
ENCODING -1 73
SWIDTH 0 0
DWIDTH 12 0
BBX 10 11 1 -1
BITMAP
0000
0000
ff80
c180
a280
9480
8880
9480
a280
c180
ff80
ENDCHAR
STARTCHAR J
ENCODING -1 74
SWIDTH 0 0
DWIDTH 12 0
BBX 10 11 1 -1
BITMAP
0000
00c0
fdc0
8380
8300
8680
8680
ec80
bc80
9880
ff80
ENDCHAR
STARTCHAR K
ENCODING -1 75
SWIDTH 0 0
DWIDTH 12 0
BBX 10 11 1 -1
BITMAP
0000
00c0
01c0
0380
0300
0600
0600
6c00
3c00
1800
0800
ENDCHAR
STARTCHAR L
ENCODING -1 76
SWIDTH 0 0
DWIDTH 12 0
BBX 10 11 1 -1
BITMAP
0000
0000
c0c0
6180
3300
1e00
0c00
1e00
3300
6180
c0c0
ENDCHAR
STARTCHAR M
ENCODING -1 77
SWIDTH 0 0
DWIDTH 12 0
BBX 10 11 1 -1
BITMAP
0000
0000
ff80
ff80
ff80
ff80
ff80
ff80
ff80
ff80
ff80
ENDCHAR
STARTCHAR N
ENCODING -1 78
SWIDTH 0 0
DWIDTH 12 0
BBX 10 11 1 -1
BITMAP
0000
0000
3e00
7f00
ff80
ff80
ff80
ff80
ff80
7f00
3e00
ENDCHAR
STARTCHAR O
ENCODING -1 79
SWIDTH 0 0
DWIDTH 12 0
BBX 10 11 1 -1
BITMAP
0000
0000
3e00
4100
8080
8080
8080
8080
8080
4100
3e00
ENDCHAR
STARTCHAR P
ENCODING -1 80
SWIDTH 0 0
DWIDTH 9 0
BBX 7 11 1 -1
BITMAP
fc00
8200
8200
8200
8200
fc00
8000
8000
8000
8000
8000
ENDCHAR
STARTCHAR Q
ENCODING -1 81
SWIDTH 0 0
DWIDTH 11 0
BBX 9 11 1 -1
BITMAP
1c00
6300
4100
8080
8080
8080
8080
8480
4300
6300
1c80
ENDCHAR
STARTCHAR R
ENCODING -1 82
SWIDTH 0 0
DWIDTH 9 0
BBX 7 11 1 -1
BITMAP
fc00
8200
8200
8200
8200
fc00
8400
8200
8200
8200
8200
ENDCHAR
STARTCHAR S
ENCODING -1 83
SWIDTH 0 0
DWIDTH 9 0
BBX 7 11 1 -1
BITMAP
3800
4400
8200
8000
6000
1800
0400
0200
8200
4400
3800
ENDCHAR
STARTCHAR T
ENCODING -1 84
SWIDTH 0 0
DWIDTH 9 0
BBX 9 11 0 -1
BITMAP
ff80
0800
0800
0800
0800
0800
0800
0800
0800
0800
0800
ENDCHAR
STARTCHAR U
ENCODING -1 85
SWIDTH 0 0
DWIDTH 10 0
BBX 8 11 1 -1
BITMAP
8100
8100
8100
8100
8100
8100
8100
8100
8100
4200
3c00
ENDCHAR
STARTCHAR V
ENCODING -1 86
SWIDTH 0 0
DWIDTH 11 0
BBX 9 11 1 -1
BITMAP
8080
8080
4100
4100
4100
2200
2200
1400
1400
0800
0800
ENDCHAR
STARTCHAR W
ENCODING -1 87
SWIDTH 0 0
DWIDTH 15 0
BBX 13 11 1 -1
BITMAP
8208
8208
8508
4510
4510
4510
28a0
28a0
28a0
1040
1040
ENDCHAR
STARTCHAR X
ENCODING -1 88
SWIDTH 0 0
DWIDTH 10 0
BBX 8 11 1 -1
BITMAP
8100
4200
4200
2400
1800
1800
2400
2400
4200
8100
8100
ENDCHAR
STARTCHAR Y
ENCODING -1 89
SWIDTH 0 0
DWIDTH 9 0
BBX 9 11 0 -1
BITMAP
8080
4100
4100
2200
2200
1400
0800
0800
0800
0800
0800
ENDCHAR
STARTCHAR Z
ENCODING -1 90
SWIDTH 0 0
DWIDTH 9 0
BBX 7 11 1 -1
BITMAP
fe00
0200
0400
0800
0800
1000
2000
2000
4000
8000
fe00
ENDCHAR
STARTCHAR [
ENCODING -1 91
SWIDTH 0 0
DWIDTH 4 0
BBX 3 14 1 -4
BITMAP
e000
8000
8000
8000
8000
8000
8000
8000
8000
8000
8000
8000
8000
e000
ENDCHAR
STARTCHAR \
ENCODING -1 92
SWIDTH 0 0
DWIDTH 4 0
BBX 4 11 0 -1
BITMAP
8000
8000
4000
4000
4000
2000
2000
2000
1000
1000
1000
ENDCHAR
STARTCHAR ]
ENCODING -1 93
SWIDTH 0 0
DWIDTH 4 0
BBX 3 14 0 -4
BITMAP
e000
2000
2000
2000
2000
2000
2000
2000
2000
2000
2000
2000
2000
e000
ENDCHAR
STARTCHAR ^
ENCODING -1 94
SWIDTH 0 0
DWIDTH 7 0
BBX 5 3 1 7
BITMAP
2000
5000
8800
ENDCHAR
STARTCHAR _
ENCODING -1 95
SWIDTH 0 0
DWIDTH 8 0
BBX 8 1 0 -4
BITMAP
ff00
ENDCHAR
STARTCHAR `
ENCODING -1 96
SWIDTH 0 0
DWIDTH 3 0
BBX 2 3 0 7
BITMAP
4000
8000
c000
ENDCHAR
STARTCHAR a
ENCODING -1 97
SWIDTH 0 0
DWIDTH 8 0
BBX 7 8 1 -1
BITMAP
7800
8400
0400
7c00
8400
8400
8c00
7600
ENDCHAR
STARTCHAR b
ENCODING -1 98
SWIDTH 0 0
DWIDTH 8 0
BBX 6 11 1 -1
BITMAP
8000
8000
8000
b800
c400
8400
8400
8400
8400
c400
b800
ENDCHAR
STARTCHAR c
ENCODING -1 99
SWIDTH 0 0
DWIDTH 8 0
BBX 6 8 1 -1
BITMAP
7800
8400
8400
8000
8000
8000
8400
7800
ENDCHAR
STARTCHAR d
ENCODING -1 100
SWIDTH 0 0
DWIDTH 8 0
BBX 6 11 1 -1
BITMAP
0400
0400
0400
7400
8c00
8400
8400
8400
8400
8c00
7400
ENDCHAR
STARTCHAR e
ENCODING -1 101
SWIDTH 0 0
DWIDTH 8 0
BBX 6 8 1 -1
BITMAP
7800
8400
8400
fc00
8000
8000
8400
7800
ENDCHAR
STARTCHAR f
ENCODING -1 102
SWIDTH 0 0
DWIDTH 5 0
BBX 4 11 0 -1
BITMAP
3000
4000
4000
f000
4000
4000
4000
4000
4000
4000
4000
ENDCHAR
STARTCHAR g
ENCODING -1 103
SWIDTH 0 0
DWIDTH 8 0
BBX 6 11 1 -4
BITMAP
7400
8c00
8400
8400
8400
8400
8c00
7400
0400
8400
7800
ENDCHAR
STARTCHAR h
ENCODING -1 104
SWIDTH 0 0
DWIDTH 11 0
BBX 4 5 1 2
BITMAP
0000
f000
9000
9000
f000
ENDCHAR
STARTCHAR i
ENCODING -1 105
SWIDTH 0 0
DWIDTH 3 0
BBX 1 11 1 -1
BITMAP
8000
8000
0000
8000
8000
8000
8000
8000
8000
8000
8000
ENDCHAR
STARTCHAR j
ENCODING -1 106
SWIDTH 0 0
DWIDTH 4 0
BBX 3 14 0 -4
BITMAP
2000
2000
0000
2000
2000
2000
2000
2000
2000
2000
2000
2000
2000
c000
ENDCHAR
STARTCHAR k
ENCODING -1 107
SWIDTH 0 0
DWIDTH 7 0
BBX 6 11 1 -1
BITMAP
8000
8000
8000
8800
9000
a000
c000
a000
9000
8800
8400
ENDCHAR
STARTCHAR l
ENCODING -1 108
SWIDTH 0 0
DWIDTH 3 0
BBX 1 11 1 -1
BITMAP
8000
8000
8000
8000
8000
8000
8000
8000
8000
8000
8000
ENDCHAR
STARTCHAR m
ENCODING -1 109
SWIDTH 0 0
DWIDTH 11 0
BBX 4 5 1 2
BITMAP
0000
f000
f000
f000
f000
ENDCHAR
STARTCHAR n
ENCODING -1 110
SWIDTH 0 0
DWIDTH 11 0
BBX 4 5 1 2
BITMAP
0000
6000
f000
f000
6000
ENDCHAR
STARTCHAR o
ENCODING -1 111
SWIDTH 0 0
DWIDTH 11 0
BBX 4 5 1 2
BITMAP
0000
6000
9000
9000
6000
ENDCHAR
STARTCHAR p
ENCODING -1 112
SWIDTH 0 0
DWIDTH 8 0
BBX 6 11 1 -4
BITMAP
b800
c400
8400
8400
8400
8400
c400
b800
8000
8000
8000
ENDCHAR
STARTCHAR q
ENCODING -1 113
SWIDTH 0 0
DWIDTH 8 0
BBX 6 11 1 -4
BITMAP
7400
8c00
8400
8400
8400
8400
8c00
7400
0400
0400
0400
ENDCHAR
STARTCHAR r
ENCODING -1 114
SWIDTH 0 0
DWIDTH 5 0
BBX 4 8 1 -1
BITMAP
b000
c000
8000
8000
8000
8000
8000
8000
ENDCHAR
STARTCHAR s
ENCODING -1 115
SWIDTH 0 0
DWIDTH 8 0
BBX 6 8 1 -1
BITMAP
7800
8400
8000
6000
1800
0400
8400
7800
ENDCHAR
STARTCHAR t
ENCODING -1 116
SWIDTH 0 0
DWIDTH 5 0
BBX 4 10 0 -1
BITMAP
4000
4000
f000
4000
4000
4000
4000
4000
4000
3000
ENDCHAR
STARTCHAR u
ENCODING -1 117
SWIDTH 0 0
DWIDTH 8 0
BBX 6 8 1 -1
BITMAP
8400
8400
8400
8400
8400
8400
8c00
7400
ENDCHAR
STARTCHAR v
ENCODING -1 118
SWIDTH 0 0
DWIDTH 8 0
BBX 6 8 1 -1
BITMAP
8400
8400
8400
4800
4800
4800
3000
3000
ENDCHAR
STARTCHAR w
ENCODING -1 119
SWIDTH 0 0
DWIDTH 9 0
BBX 9 8 0 -1
BITMAP
8880
8880
8880
4900
4900
5500
2200
2200
ENDCHAR
STARTCHAR x
ENCODING -1 120
SWIDTH 0 0
DWIDTH 8 0
BBX 7 8 0 -1
BITMAP
8200
4400
2800
1000
1000
2800
4400
8200
ENDCHAR
STARTCHAR y
ENCODING -1 121
SWIDTH 0 0
DWIDTH 8 0
BBX 7 11 0 -4
BITMAP
8200
8200
4400
4400
2400
2800
1800
1000
1000
1000
6000
ENDCHAR
STARTCHAR z
ENCODING -1 122
SWIDTH 0 0
DWIDTH 7 0
BBX 6 8 0 -1
BITMAP
fc00
0400
0800
1000
2000
4000
8000
fc00
ENDCHAR
STARTCHAR {
ENCODING -1 123
SWIDTH 0 0
DWIDTH 5 0
BBX 5 14 0 -4
BITMAP
1800
2000
2000
2000
2000
4000
8000
4000
2000
2000
2000
2000
2000
1800
ENDCHAR
STARTCHAR |
ENCODING -1 124
SWIDTH 0 0
DWIDTH 3 0
BBX 1 14 1 -4
BITMAP
8000
8000
8000
8000
8000
8000
8000
8000
8000
8000
8000
8000
8000
8000
ENDCHAR
STARTCHAR }
ENCODING -1 125
SWIDTH 0 0
DWIDTH 5 0
BBX 5 14 0 -4
BITMAP
c000
2000
2000
2000
2000
1000
0800
1000
2000
2000
2000
2000
2000
c000
ENDCHAR
STARTCHAR ~
ENCODING -1 126
SWIDTH 0 0
DWIDTH 8 0
BBX 6 3 1 2
BITMAP
6400
b400
9800
ENDCHAR
ENDFONT
